HIERARCHY
ROOT Hips
{
	OFFSET 0.000000 0.000000 0.000000 
	CHANNELS 6 Xposition Yposition Zposition Zrotation Yrotation Xrotation
	JOINT LeftUpLeg
	{
		OFFSET 1.363060 -1.794630 0.839290 
		CHANNELS 3 Zrotation Yrotation Xrotation
		JOINT LeftLeg
		{
			OFFSET 2.448110 -6.726130 0.000000 
			CHANNELS 3 Zrotation Yrotation Xrotation
			JOINT LeftFoot
			{
				OFFSET 2.562200 -7.039590 0.000000 
				CHANNELS 3 Zrotation Yrotation Xrotation
				JOINT LeftToeBase
				{
					OFFSET 0.157640 -0.433110 2.322550 
					CHANNELS 3 Zrotation Yrotation Xrotation
					End Site
					{
						OFFSET 0.000000 0.000000 0.000000 
					}
				}
			}
		}
	}
	JOINT RightUpLeg
	{
		OFFSET -1.305520 -1.794630 0.839290 
		CHANNELS 3 Zrotation Yrotation Xrotation
		JOINT RightLeg
		{
			OFFSET -2.542530 -6.985550 0.000000 
			CHANNELS 3 Zrotation Yrotation Xrotation
			JOINT RightFoot
			{
				OFFSET -2.568260 -7.056230 0.000000 
				CHANNELS 3 Zrotation Yrotation Xrotation
				JOINT RightToeBase
				{
					OFFSET -0.164730 -0.452590 2.363150 
					CHANNELS 3 Zrotation Yrotation Xrotation
					End Site
					{
						OFFSET 0.000000 0.000000 0.000000 
					}
				}
			}
		}
	}
	JOINT Spine
	{
		OFFSET 0.028270 2.035590 -0.193380 
		CHANNELS 3 Zrotation Yrotation Xrotation
		JOINT Spine1
		{
			OFFSET 0.056720 2.048850 -0.042750 
			CHANNELS 3 Zrotation Yrotation Xrotation
			JOINT Neck1
			{
				OFFSET -0.054170 1.746240 0.172020 
				CHANNELS 3 Zrotation Yrotation Xrotation
				JOINT Head
				{
					OFFSET 0.104070 1.761360 -0.123970 
					CHANNELS 3 Zrotation Yrotation Xrotation
					End Site
					{
						OFFSET 0.000000 0.000000 0.000000 
					}
				}
			}
			JOINT LeftArm
			{
				OFFSET 3.362410 1.200890 -0.311210 
				CHANNELS 3 Zrotation Yrotation Xrotation
				JOINT LeftForeArm
				{
					OFFSET 4.983000 -0.000000 -0.000000 
					CHANNELS 3 Zrotation Yrotation Xrotation
					JOINT LeftHand
					{
						OFFSET 3.483560 -0.000000 -0.000000 
						CHANNELS 3 Zrotation Yrotation Xrotation
						JOINT LeftHandIndex1
						{
							OFFSET 0.715260 -0.000000 -0.000000 
							CHANNELS 3 Zrotation Yrotation Xrotation
							End Site
							{
								OFFSET 0.000000 0.000000 0.000000 
							}
						}
					}
				}
			}
			JOINT RightArm
			{
				OFFSET -3.136600 1.374050 -0.404650 
				CHANNELS 3 Zrotation Yrotation Xrotation
				JOINT RightForeArm
				{
					OFFSET -5.241900 -0.000000 -0.000000 
					CHANNELS 3 Zrotation Yrotation Xrotation
					JOINT RightHand
					{
						OFFSET -3.444170 -0.000000 -0.000000 
						CHANNELS 3 Zrotation Yrotation Xrotation
						JOINT RightHandIndex1
						{
							OFFSET -0.622530 -0.000000 -0.000000 
							CHANNELS 3 Zrotation Yrotation Xrotation
							End Site
							{
								OFFSET 0.000000 0.000000 0.000000 
							}
						}
					}
				}
			}
		}
	}
}
MOTION
Frames: 12
Frame Time: 0.041667
-0.729810 18.314244 21.831131 2.663146 -25.009272 0.995503 -23.552941 13.158097 3.977167 -0.796043 0.988788 4.922753 -1.711021 11.226046 15.042212 0.572100 -4.844100 -13.464400 10.860258 18.550317 -47.638199 -1.101476 -9.196730 25.827335 -1.808097 2.518680 -17.397256 -1.552500 7.864200 -22.302400 2.700858 -10.225289 -4.508191 -6.251559 -5.177787 5.174159 3.311197 6.199650 7.977337 1.496200 3.365800 3.886900 -72.167511 -51.603558 73.615362 122.404240 -53.354535 -86.909377 1.429120 -0.995864 -19.744837 -7.125000 0.000000 0.000000 67.188824 -42.156832 66.925694 -14.737755 28.155406 -3.477182 -0.096655 0.128534 2.528330 7.125000 0.000000 0.000000 
-0.778111 18.263905 21.953411 2.823660 -25.048959 1.040485 -23.718802 13.392470 4.393166 -0.789157 0.946503 4.869654 -1.725241 11.020975 14.409071 0.593600 -4.932700 -13.716700 11.088913 18.350785 -47.114457 -1.088227 -9.165320 25.757971 -1.900692 2.974695 -17.294846 -1.518800 7.782200 -22.054400 2.702501 -10.244745 -4.535588 -6.301470 -5.186507 5.199393 3.282328 6.244924 7.966280 1.479200 3.387300 3.872300 -72.300100 -51.938666 73.527488 123.374241 -53.016123 -87.792257 1.419888 -1.013345 -19.790946 -7.125000 0.000000 0.000000 66.769553 -43.132453 67.191745 -14.704341 28.198852 -3.487447 -0.091340 0.133732 2.637560 7.125000 0.000000 0.000000 
-0.827125 18.207656 22.075488 2.968920 -25.067245 1.093507 -23.879951 13.584853 4.750437 -0.773867 0.960018 4.972217 -1.745068 10.784654 13.605163 0.614800 -5.018400 -13.961000 11.306930 18.118231 -46.579666 -1.072637 -9.131692 25.679770 -1.986986 3.407547 -17.182221 -1.468500 7.658100 -21.680300 2.705905 -10.271772 -4.562606 -6.347867 -5.198490 5.228402 3.250713 6.289421 7.946682 1.459500 3.408400 3.853300 -72.456585 -52.191336 73.465701 124.275505 -52.695898 -88.605129 1.411253 -1.028779 -19.837217 -7.125000 0.000000 0.000000 66.462009 -43.979636 67.277215 -14.596056 28.144208 -3.467288 -0.085747 0.137554 2.779514 7.125000 0.000000 0.000000 
-0.876751 18.145599 22.197462 3.092730 -25.055975 1.162869 -24.026707 13.726039 5.049194 -0.751142 1.026342 5.220567 -1.763687 10.510680 12.654877 0.631500 -5.084600 -14.150100 11.490708 17.882935 -46.037233 -1.055121 -9.096320 25.596010 -2.056590 3.762236 -17.073213 -1.410800 7.512600 -21.243300 2.711068 -10.308517 -4.588543 -6.397719 -5.214171 5.268125 3.225511 6.332589 7.918806 1.441900 3.428900 3.828900 -72.637613 -52.365621 73.435233 125.104234 -52.398487 -89.344535 1.402854 -1.041892 -19.877589 -7.125000 0.000000 0.000000 66.281935 -44.692928 67.182840 -14.419526 27.997416 -3.418665 -0.079943 0.139953 2.959631 7.125000 0.000000 0.000000 
-0.927497 18.078141 22.318622 3.175134 -25.029337 1.257841 -24.132932 13.825994 5.279418 -0.721152 1.144959 5.612718 -1.772712 10.186133 11.587593 0.644900 -5.137300 -14.300700 11.631135 17.711989 -45.473096 -1.036434 -9.056678 25.505384 -2.105305 4.009229 -16.986151 -1.343700 7.339200 -20.724200 2.720253 -10.349598 -4.612348 -6.448385 -5.230192 5.320236 3.205884 6.372182 7.886771 1.426200 3.447800 3.801500 -72.839586 -52.462485 73.442837 125.863849 -52.124337 -90.013866 1.395510 -1.052462 -19.904454 -7.125000 0.000000 0.000000 66.222699 -45.272372 66.937798 -14.187315 27.770633 -3.346198 -0.074193 0.141074 3.182291 7.125000 0.000000 0.000000 
-0.979160 18.005384 22.439272 3.248028 -24.977970 1.365749 -24.228236 13.878234 5.452453 -0.684504 1.309416 6.130669 -1.767663 9.810439 10.422005 0.657600 -5.186700 -14.441800 11.684582 17.606788 -44.888706 -1.014740 -9.011499 25.403046 -2.116903 4.087916 -16.886406 -1.319200 7.274600 -20.531500 2.729700 -10.393885 -4.635047 -6.497278 -5.247139 5.383063 3.192418 6.404487 7.855599 1.413700 3.463200 3.773700 -73.068960 -52.483601 73.502039 126.553570 -51.876205 -90.611885 1.389507 -1.059039 -19.920371 -7.125000 0.000000 0.000000 66.281565 -45.727147 66.564589 -13.914643 27.481133 -3.255890 -0.068617 0.141078 3.443192 7.125000 0.000000 0.000000 
-1.031232 17.928245 22.559412 3.302250 -24.901072 1.487817 -24.299405 13.888945 5.588369 -0.642554 1.507169 6.738414 -1.744247 9.387628 9.195794 0.669100 -5.230800 -14.568000 11.658467 17.572993 -44.277242 -0.990835 -8.960717 25.287234 -2.107859 4.063675 -16.798318 -1.308100 7.245100 -20.443700 2.740777 -10.442767 -4.655944 -6.547852 -5.265279 5.457288 3.171805 6.427559 7.833451 1.398400 3.474000 3.752100 -73.318869 -52.431817 73.604346 127.169356 -51.656668 -91.137709 1.384696 -1.064013 -19.929866 -7.125000 0.000000 0.000000 66.455248 -46.054461 66.084316 -13.610596 27.137791 -3.151559 -0.063402 0.140114 3.745316 7.125000 0.000000 0.000000 
-1.083710 17.847133 22.679553 3.338986 -24.805148 1.619012 -24.344104 13.880893 5.733445 -0.600007 1.706412 7.347761 -1.702945 8.938043 7.963679 0.680200 -5.273400 -14.689900 11.562217 17.609698 -43.639875 -0.966629 -8.907678 25.168075 -2.081235 3.954165 -16.716963 -1.319000 7.273900 -20.529500 2.754702 -10.495709 -4.674339 -6.593286 -5.284488 5.541961 3.147368 6.445959 7.813420 1.382800 3.482400 3.732000 -73.573548 -52.309430 73.744075 127.714628 -51.465632 -91.594710 1.381261 -1.066715 -19.941209 -7.125000 0.000000 0.000000 66.719628 -46.256900 65.535090 -13.289690 26.757774 -3.038928 -0.058659 0.138447 4.084438 7.125000 0.000000 0.000000 
-1.136393 17.763065 22.799897 3.356030 -24.690263 1.756045 -24.357057 13.862624 5.910173 -0.558814 1.894385 7.923091 -1.644819 8.471845 6.753539 0.692300 -5.318900 -14.820500 11.413562 17.699209 -42.977754 -0.943191 -8.854606 25.050949 -2.045725 3.798965 -16.647595 -1.341800 7.334000 -20.708800 2.772684 -10.552850 -4.690458 -6.630856 -5.304885 5.634040 3.113587 6.462951 7.798748 1.365100 3.489800 3.716200 -73.828629 -52.119945 73.920288 128.193882 -51.302042 -91.987510 1.379485 -1.066916 -19.967822 -7.125000 0.000000 0.000000 67.058293 -46.340529 64.946158 -12.964307 26.356655 -2.923250 -0.054505 0.136310 4.453509 7.125000 0.000000 0.000000 
-1.188260 17.677163 22.921668 3.389184 -24.542471 1.876654 -24.374651 13.832597 6.154625 -0.521740 2.057541 8.426970 -1.572398 8.000772 5.590531 0.706800 -5.373200 -14.976100 11.200605 17.779894 -42.299410 -0.921637 -8.807515 24.945122 -2.007298 3.631773 -16.573897 -1.375400 7.421700 -20.970800 2.790611 -10.619404 -4.705281 -6.663885 -5.330479 5.727662 3.067407 6.481822 7.785386 1.343800 3.497500 3.702700 -74.073253 -51.867355 74.120458 128.601688 -51.168371 -92.313964 1.378324 -1.067166 -19.996870 -7.125000 0.000000 0.000000 67.451365 -46.320145 64.346209 -12.649931 25.955485 -2.810563 -0.051014 0.133937 4.842390 7.125000 0.000000 0.000000 
-1.239822 17.589936 23.045171 3.422201 -24.384051 1.985839 -24.378852 13.816795 6.474051 -0.490708 2.185747 8.831480 -1.488828 7.533070 4.496835 0.722000 -5.429400 -15.137500 10.956385 17.863709 -41.604447 -0.904209 -8.768982 24.862539 -1.965301 3.447613 -16.502815 -1.408900 7.507700 -21.228500 2.809136 -10.685042 -4.717896 -6.692991 -5.355695 5.821722 3.006208 6.500912 7.768747 1.316600 3.505000 3.689400 -74.301240 -51.561869 74.342305 128.939861 -51.063913 -92.576859 1.378021 -1.067286 -20.036642 -7.125000 0.000000 0.000000 67.878617 -46.207788 63.777949 -12.359798 25.572753 -2.705569 -0.048202 0.131485 5.212779 7.125000 0.000000 0.000000 
-1.291179 17.502404 23.171120 3.462866 -24.220667 2.083116 -24.377628 13.824507 6.880249 -0.467973 2.269026 9.109092 -1.396794 7.074715 3.494849 0.738000 -5.488200 -15.306300 10.683913 17.943479 -40.901973 -0.893440 -8.744572 24.818841 -1.920307 3.247505 -16.440317 -1.429600 7.560200 -21.386000 2.824953 -10.743893 -4.727048 -6.729217 -5.376849 5.923949 2.945117 6.518618 7.740553 1.290700 3.511600 3.670900 -74.511533 -51.218794 74.588017 129.199600 -50.993210 -92.769899 1.378611 -1.067969 -20.041442 -7.125000 0.000000 0.000000 68.359017 -46.009063 63.217112 -12.094737 25.212704 -2.608767 -0.045957 0.128975 5.561877 7.125000 0.000000 0.000000 
